<svg width="67" height="66" xmlns="http://www.w3.org/2000/svg">
  <g fill="#FFF">
    <path d="M21.2 0C9.6 0 .2 9.4.2 21v24c0 11.6 9.4 21 21 21s21-9.4 21-21V21c0-11.6-9.4-21-21-21zm16 45c0 8.8-7.2 16-16 16s-16-7.2-16-16V21c0-8.8 7.2-16 16-16s16 7.2 16 16v24z"/>
    <path d="M21.2 13.4c-1.4 0-2.5 1.1-2.5 2.5v7.3c0 1.4 1.1 2.5 2.5 2.5s2.5-1.1 2.5-2.5v-7.3c0-1.3-1.1-2.5-2.5-2.5zm43 31.5l-3.4 3.4V14c0-.8-.7-1.5-1.5-1.5s-1.5.7-1.5 1.5v34.4L54.4 45c-.6-.6-1.5-.6-2.1 0-.6.6-.6 1.5 0 2.1l6 6c.1.1.3.3.5.3.2.1.4.1.5.1.1 0 .4 0 .5-.1.2-.1.3-.2.5-.3l6-6c.6-.6.6-1.5 0-2.1-.6-.6-1.5-.6-2.1-.1z"/>
  </g>
</svg>
